# xmcd
#
# Track frame offsets: 
#        150
#        15155
#        32374
#        55193
#        71662
#        79492
#        92126
#        106363
#        128039
#        149636
#        165830
#        178797
#        193133
#
# Disc length: 2932 seconds
#
# Revision: 0
# Processed by: cddbd v1.5.2PL0 Copyright (c) Steve Scherf et al.
# Submitted via: ExactAudioCopy v0.99pb5
#
DISCID=aa0b720d
DTITLE=Honey Don't - Honey Don't
DYEAR=2009
DGENRE=Bluegrass
TTITLE0=Big Buck in the Road
TTITLE1=Honey Don't
TTITLE2=Talk to Me Tennessee
TTITLE3=Sixty Years
TTITLE4=Ol' #1
TTITLE5=Ellia Jewel
TTITLE6=Who Took the Jukebox
TTITLE7=You Can't Get Your Kicks on Route 66
TTITLE8=Pallet on Your Floor
TTITLE9=The Cuckoo
TTITLE10=Son of a Gun
TTITLE11=Silvertone Rag
TTITLE12=For the Sake of Love
EXTD=
EXTT0=
EXTT1=
EXTT2=
EXTT3=
EXTT4=
EXTT5=
EXTT6=
EXTT7=
EXTT8=
EXTT9=
EXTT10=
EXTT11=
EXTT12=
PLAYORDER=
